<?xml version="1.0" encoding="UTF-8"?>
<svg width="24px" height="24px" viewBox="0 0 24 24" version="1.1" xmlns="http://www.w3.org/2000/svg">
    <g stroke="none" stroke-width="1" fill="none" fill-rule="evenodd">
        <path d="M21.8055,10.0415 L21,10.0415 L21,10 L12,10 L12,14 L17.6515,14 C16.827,16.3285 14.6115,18 12,18 C8.6865,18 6,15.3135 6,12 C6,8.6865 8.6865,6 12,6 C13.5295,6 14.921,6.577 15.9805,7.5195 L18.809,4.691 C17.023,3.0265 14.634,2 12,2 C6.4775,2 2,6.4775 2,12 C2,17.5225 6.4775,22 12,22 C17.5225,22 22,17.5225 22,12 C22,11.3295 21.931,10.675 21.8055,10.0415 Z" fill="#FBC02D"></path>
        <path d="M3.15295,7.3455 L6.43845,9.755 C7.32745,7.554 9.48045,6 12,6 C13.5295,6 14.921,6.577 15.9805,7.5195 L18.809,4.691 C17.023,3.0265 14.634,2 12,2 C8.15895,2 4.82795,4.1685 3.15295,7.3455 Z" fill="#E53935"></path>
        <path d="M12,22 C14.583,22 16.93,21.0115 18.7045,19.404 L15.6095,16.785 C14.5715,17.5745 13.3035,18.001 12,18 C9.399,18 7.1905,16.3415 6.3585,14.027 L3.0975,16.5395 C4.7525,19.778 8.1135,22 12,22 Z" fill="#4CAF50"></path>
        <path d="M21.8055,10.0415 L21,10.0415 L21,10 L12,10 L12,14 L17.6515,14 C17.2571,15.1082 16.5467,16.0766 15.608,16.7855 L15.6095,16.785 L18.7045,19.404 C18.4855,19.6025 22,17 22,12 C22,11.3295 21.931,10.675 21.8055,10.0415 Z" fill="#1565C0"></path>
    </g>
</svg> 